<?xml version="1.0" encoding="utf-8"?>
<!-- Generator: Adobe Illustrator 17.0.0, SVG Export Plug-In . SVG Version: 6.00 Build 0)  -->
<!DOCTYPE svg PUBLIC "-//W3C//DTD SVG 1.1//EN" "http://www.w3.org/Graphics/SVG/1.1/DTD/svg11.dtd">
<svg version="1.1" id="logo" xmlns="http://www.w3.org/2000/svg" xmlns:xlink="http://www.w3.org/1999/xlink" x="0px" y="0px"
	 width="261.338px" height="50px" viewBox="0 0 261.338 50" enable-background="new 0 0 261.338 50" xml:space="preserve">
<g id="campanile_1_">
	<g>
		<path fill="#00B173" d="M194.418,21.487c-0.006,1.39-1.133,2.518-2.523,2.518c-1.389-0.001-2.513-1.138-2.512-2.527
			c0.005-1.395,1.129-2.521,2.523-2.519C193.292,18.961,194.418,20.094,194.418,21.487L194.418,21.487z"/>
		<path fill="#00B173" d="M191.916,3.869l12.089,11.666v22.793h-6.624V20.765c0-3.616-2.428-5.643-5.457-5.643
			c-3.497,0-5.513,2.352-5.513,5.643v17.563h-6.617V15.539L191.916,3.869L191.916,3.869z"/>
	</g>
	<path fill="#003A70" d="M17.231,38.847C7.538,38.847,0,30.676,0,20.245C0,9.81,7.538,1.641,17.231,1.641
		c8.049,0,13.999,4.575,16.206,11.873h-7.332c-1.592-3.237-4.768-5.654-8.874-5.654c-5.846,0-10.46,5.654-10.46,12.384
		c0,6.781,4.614,12.434,10.46,12.434c4.052,0,7.282-2.518,8.874-5.753h7.283C31.13,34.171,25.13,38.847,17.231,38.847z"/>
	<path fill="#003A70" d="M63.541,38.231h-6.463v-2.825c-2.049,2.157-4.872,3.389-8.1,3.389c-6.869,0-12.567-5.96-12.567-13.77
		c0-7.865,5.697-13.827,12.567-13.827c3.228,0,6.051,1.236,8.1,3.394v-2.826h6.463V38.231z M50.005,17.47
		c-3.746,0-6.774,3.291-6.774,7.606c0,4.212,3.028,7.451,6.774,7.451c3.74,0,6.768-3.342,6.768-7.451
		C56.773,20.864,53.745,17.47,50.005,17.47z"/>
	<path fill="#003A70" d="M110.257,38.231h-6.768V22.762c0-1.539-0.516-5.241-4.923-5.241c-3.023,0-5.125,2.26-5.125,5.241v15.469
		h-6.825V22.762c0-1.539-0.459-5.241-4.921-5.241c-2.974,0-5.078,2.26-5.078,5.241v15.469h-6.818V11.767h6.509v2.569
		c1.642-2.003,3.95-3.235,6.821-3.235c3.285,0,6.053,1.383,7.899,3.749c1.897-2.312,4.667-3.749,8.049-3.749
		c7.076,0,11.18,4.726,11.18,11.662C110.257,22.763,110.257,38.231,110.257,38.231z"/>
	<path fill="#003A70" d="M130.773,38.796c-3.025,0-5.74-1.183-7.743-3.132V50h-6.819V11.767h6.512v2.774
		c2.05-2.106,4.872-3.391,8.05-3.391c6.922,0,12.565,5.96,12.565,13.771C143.337,32.784,137.695,38.796,130.773,38.796z
		 M129.799,17.47c-3.745,0-6.769,3.338-6.769,7.451c0,4.166,3.024,7.555,6.769,7.555c3.745,0,6.77-3.239,6.77-7.555
		C136.568,20.657,133.543,17.47,129.799,17.47z"/>
	<path fill="#003A70" d="M173.544,38.231h-6.461v-2.825c-2.053,2.157-4.871,3.389-8.102,3.389c-6.869,0-12.566-5.96-12.566-13.77
		c0-7.865,5.697-13.827,12.566-13.827c3.232,0,6.05,1.236,8.102,3.394v-2.826h6.461V38.231z M160.007,17.47
		c-3.746,0-6.772,3.291-6.772,7.606c0,4.212,3.026,7.451,6.772,7.451c3.74,0,6.767-3.342,6.767-7.451
		C166.775,20.864,163.748,17.47,160.007,17.47z"/>
	<path fill="#003A70" d="M230.926,38.231h-6.769V0h6.769V38.231z"/>
	<path fill="#003A70" d="M217.462,38.231h-6.766V13.208h6.766V38.231z"/>
	<path fill="#003A70" d="M209.366,4.774c0-2.644,2.123-4.774,4.722-4.774c2.644,0,4.706,2.13,4.706,4.774
		c0,2.599-2.063,4.666-4.706,4.666C211.489,9.44,209.366,7.373,209.366,4.774z"/>
	<path fill="#003A70" d="M261.338,24.929c0-8.182-5.804-13.894-12.988-13.894c-7.066,0-12.784,5.794-12.969,13.506h-0.019
		c0,0.068,0,0.876,0,0.876c0.395,7.735,5.928,13.413,12.986,13.357c5.216-0.044,9.515-2.605,11.638-7.008l-5.333-1.966
		c-1.181,2.089-3.47,3.234-5.945,3.234c-3.73,0-6.579-2.949-6.938-6.539h19.568V24.929z M242.039,21.357
		c0.785-2.962,3.123-5.033,6.391-5.033c3.055,0,5.489,2.162,6.345,5.033C254.775,21.357,242.039,21.357,242.039,21.357z"/>
</g>
</svg>
